<svg width="28" height="16" viewBox="0 0 28 16" fill="none" xmlns="http://www.w3.org/2000/svg">
<path d="M7.89697 0C12.2584 0 15.7937 3.58192 15.7937 8.00014C15.7937 12.4184 12.2581 16 7.89697 16C3.53585 16 0 12.4184 0 8.00014C0 3.58192 3.53558 0 7.89697 0ZM20.5079 0.468627C22.6886 0.468627 24.4564 3.84026 24.4564 8.00014H24.4566C24.4566 12.1589 22.6888 15.5316 20.5082 15.5316C18.3275 15.5316 16.5597 12.1589 16.5597 8.00014C16.5597 3.84134 18.3272 0.468627 20.5079 0.468627ZM26.6113 1.25309C27.3781 1.25309 28 4.27379 28 8.00014C28 11.7254 27.3784 14.7472 26.6113 14.7472C25.8443 14.7472 25.2229 11.7262 25.2229 8.00014C25.2229 4.27406 25.8445 1.25309 26.6113 1.25309Z" fill="white"/>
</svg>
