<svg width="40" height="40" viewBox="0 0 40 40" fill="none" xmlns="http://www.w3.org/2000/svg">
<path d="M26.3607 6H14.6393C9.87555 6 6 9.87555 6 14.6393V26.3607C6 31.1244 9.87555 35 14.6393 35H26.3607C31.1244 35 35 31.1244 35 26.3607V14.6393C34.9999 9.87555 31.1244 6 26.3607 6ZM32.0826 26.3607C32.0826 29.5208 29.5208 32.0826 26.3607 32.0826H14.6393C11.4792 32.0826 8.9174 29.5208 8.9174 26.3607V14.6393C8.9174 11.4791 11.4792 8.9174 14.6393 8.9174H26.3607C29.5208 8.9174 32.0826 11.4791 32.0826 14.6393V26.3607Z" fill="url(#paint0_linear_852_1262)"/>
<path d="M20.5 12.9995C16.3643 12.9995 12.9996 16.3642 12.9996 20.4999C12.9996 24.6356 16.3643 28.0003 20.5 28.0003C24.6357 28.0003 28.0004 24.6356 28.0004 20.4999C28.0004 16.3641 24.6357 12.9995 20.5 12.9995ZM20.5 25.083C17.9688 25.083 15.917 23.0311 15.917 20.4999C15.917 17.9688 17.9689 15.9169 20.5 15.9169C23.0312 15.9169 25.083 17.9688 25.083 20.4999C25.083 23.031 23.0311 25.083 20.5 25.083Z" fill="url(#paint1_linear_852_1262)"/>
<path d="M28.015 14.8532C29.0076 14.8532 29.8122 14.0485 29.8122 13.0559C29.8122 12.0633 29.0076 11.2587 28.015 11.2587C27.0224 11.2587 26.2177 12.0633 26.2177 13.0559C26.2177 14.0485 27.0224 14.8532 28.015 14.8532Z" fill="url(#paint2_linear_852_1262)"/>
<defs>
<linearGradient id="paint0_linear_852_1262" x1="31.5" y1="8" x2="8" y2="32.5" gradientUnits="userSpaceOnUse">
<stop stop-color="#C441A8"/>
<stop offset="0.494792" stop-color="#F55C44"/>
<stop offset="1" stop-color="#FAD85C"/>
</linearGradient>
<linearGradient id="paint1_linear_852_1262" x1="26.19" y1="14.034" x2="14.0342" y2="26.7072" gradientUnits="userSpaceOnUse">
<stop stop-color="#C441A8"/>
<stop offset="0.494792" stop-color="#F55C44"/>
<stop offset="1" stop-color="#FAD85C"/>
</linearGradient>
<linearGradient id="paint2_linear_852_1262" x1="29.3784" y1="11.5066" x2="26.4656" y2="14.5433" gradientUnits="userSpaceOnUse">
<stop stop-color="#C441A8"/>
<stop offset="0.494792" stop-color="#F55C44"/>
<stop offset="1" stop-color="#FAD85C"/>
</linearGradient>
</defs>
</svg>
