<svg width="40" height="40" viewBox="0 0 40 40" fill="none" xmlns="http://www.w3.org/2000/svg">
<path d="M17.4174 25.1817L17.0204 30.7659C17.5884 30.7659 17.8344 30.5219 18.1294 30.2288L20.7925 27.6838L26.3106 31.7249C27.3226 32.2889 28.0357 31.9919 28.3087 30.7939L31.9308 13.8214L31.9318 13.8204C32.2528 12.3244 31.3907 11.7394 30.4047 12.1064L9.1142 20.2576C7.66117 20.8216 7.68317 21.6316 8.8672 21.9986L14.3103 23.6917L26.9536 15.7805C27.5486 15.3865 28.0897 15.6045 27.6446 15.9985L17.4174 25.1817Z" fill="#039BE5"/>
<g clip-path="url(#clip0_852_1312)">
<path d="M21.9999 14.5046C16.6666 16.6667 11.3333 12.3424 6 14.5046C6 11.5016 6 8.49859 6 5.49562C11.3333 3.33346 16.6666 7.65778 21.9999 5.49562C21.9999 8.49856 21.9999 11.5016 21.9999 14.5046Z" fill="#F2F2F2"/>
<path d="M22 11.5016C22 12.5027 22 13.5034 22 14.5045C16.6667 16.6666 11.3334 12.3423 6.00012 14.5045C6.00012 13.5034 6.00012 12.5027 6.00012 11.5016C11.3334 9.33945 16.6667 13.6638 22 11.5016Z" fill="#31AF0E"/>
<path d="M22 5.49549C22 6.49655 22 7.49727 22 8.49836C16.6667 10.6605 11.3334 6.3362 6.00012 8.49836C6.00012 7.4973 6.00012 6.49658 6.00012 5.49549C11.3334 3.33336 16.6667 7.65764 22 5.49549Z" fill="#F7B239"/>
<path d="M14.6125 9.81982H14.1888L14.4884 9.52023C14.5307 9.47804 14.5307 9.40957 14.4884 9.36732C14.4462 9.32513 14.3778 9.32513 14.3355 9.36732L14.0359 9.66691V9.24323C14.0359 9.18351 13.9875 9.13513 13.9279 9.13513C13.8681 9.13513 13.8198 9.18354 13.8198 9.24323V9.66694L13.5202 9.36735C13.478 9.32513 13.4095 9.32516 13.3673 9.36735C13.3251 9.40957 13.3251 9.47801 13.3673 9.52026L13.6669 9.81985H13.2432C13.1834 9.81985 13.1351 9.86826 13.1351 9.92794C13.1351 9.98766 13.1835 10.036 13.2432 10.036H13.6669L13.3673 10.3356C13.3251 10.3778 13.3251 10.4463 13.3673 10.4885C13.3884 10.5096 13.416 10.5202 13.4437 10.5202C13.4714 10.5202 13.499 10.5096 13.5201 10.4885L13.8197 10.1889V10.6126C13.8197 10.6723 13.8681 10.7207 13.9278 10.7207C13.9875 10.7207 14.0359 10.6723 14.0359 10.6126V10.1889L14.3355 10.4885C14.3566 10.5096 14.3843 10.5202 14.4119 10.5202C14.4396 10.5202 14.4672 10.5096 14.4884 10.4885C14.5306 10.4463 14.5306 10.3779 14.4884 10.3356L14.1888 10.036H14.6125C14.6723 10.036 14.7206 9.98763 14.7206 9.92794C14.7206 9.86826 14.6723 9.81982 14.6125 9.81982Z" fill="#0C7AAA"/>
<path d="M13.9279 11.158C13.2496 11.158 12.6978 10.6062 12.6978 9.92788C12.6978 9.24957 13.2496 8.69775 13.9279 8.69775C14.6062 8.69775 15.158 9.24957 15.158 9.92788C15.158 10.6062 14.6062 11.158 13.9279 11.158ZM13.9279 8.91397C13.3688 8.91397 12.914 9.36882 12.914 9.92788C12.914 10.4869 13.3688 10.9418 13.9279 10.9418C14.4869 10.9418 14.9418 10.4869 14.9418 9.92788C14.9418 9.36882 14.4869 8.91397 13.9279 8.91397Z" fill="#0C7AAA"/>
</g>
<defs>
<clipPath id="clip0_852_1312">
<rect width="16" height="16" fill="white" transform="translate(6 2)"/>
</clipPath>
</defs>
</svg>
