<svg width="40" height="40" viewBox="0 0 40 40" fill="none" xmlns="http://www.w3.org/2000/svg">
<path d="M17.4174 25.1817L17.0204 30.7659C17.5884 30.7659 17.8344 30.5219 18.1294 30.2288L20.7925 27.6838L26.3106 31.7249C27.3226 32.2889 28.0357 31.9919 28.3087 30.7939L31.9308 13.8214L31.9318 13.8204C32.2528 12.3244 31.3907 11.7394 30.4047 12.1064L9.1142 20.2576C7.66117 20.8216 7.68317 21.6316 8.8672 21.9986L14.3103 23.6917L26.9536 15.7805C27.5486 15.3865 28.0897 15.6045 27.6446 15.9985L17.4174 25.1817Z" fill="#039BE5"/>
<g clip-path="url(#clip0_852_1313)">
<path d="M21.9999 14.2997C16.6666 16.4619 11.3333 12.1376 6 14.2997C6 11.2968 6 8.29376 6 5.29079C11.3333 3.12863 16.6666 7.45294 21.9999 5.29079C21.9999 8.29372 21.9999 11.2968 21.9999 14.2997Z" fill="#2550B2"/>
<path d="M22 11.5016C22 12.5027 22 13.5034 22 14.5045C16.6667 16.6666 11.3334 12.3423 6.00012 14.5045C6.00012 13.5034 6.00012 12.5027 6.00012 11.5016C11.3334 9.33945 16.6667 13.6638 22 11.5016Z" fill="#CF1F2D"/>
<path d="M22 5.49549C22 6.49655 22 7.49727 22 8.49836C16.6667 10.6605 11.3334 6.3362 6.00012 8.49836C6.00012 7.4973 6.00012 6.49658 6.00012 5.49549C11.3334 3.33336 16.6667 7.65764 22 5.49549Z" fill="#F0F0F0"/>
</g>
<defs>
<clipPath id="clip0_852_1313">
<rect width="16" height="16" fill="white" transform="translate(6 2)"/>
</clipPath>
</defs>
</svg>
