<svg width="29" height="23" viewBox="0 0 29 23" fill="none" xmlns="http://www.w3.org/2000/svg">
<path d="M29 2.72043C27.9125 3.17972 26.7887 3.4977 25.5925 3.63902C26.825 2.93241 27.7675 1.80184 28.2025 0.423963C27.0425 1.09524 25.7738 1.55453 24.4325 1.83717C23.345 0.706605 21.7863 0 20.0825 0C16.7838 0 14.1375 2.61444 14.1375 5.79416C14.1375 6.25346 14.1738 6.67742 14.2825 7.10138C9.3525 6.8894 5.0025 4.5576 2.06625 1.05991C-0.0362498 4.73426 2.32 7.77266 3.87875 8.79724C2.93625 8.79724 1.99375 8.51459 1.19625 8.09063C1.19625 10.9524 3.2625 13.3195 5.945 13.8495C5.365 14.0261 4.06 14.1321 3.2625 13.9555C4.02375 16.2519 6.235 17.9478 8.80875 17.9831C6.77875 19.5376 3.80625 20.7742 0 20.3856C2.64625 22.0461 5.76375 23 9.135 23C20.0825 23 26.0275 14.1674 26.0275 6.5361C26.0275 6.28879 26.0275 6.04148 25.9912 5.79416C27.2237 4.91091 28.2388 3.88633 29 2.72043Z" fill="#459FF1"/>
</svg>
