<svg width="52" height="25" viewBox="0 0 52 25" fill="none" xmlns="http://www.w3.org/2000/svg">
    <path d="M10.2283 5.5655C9.66092 6.22975 8.75318 6.75366 7.84543 6.67882C7.73196 5.78068 8.17638 4.8264 8.69644 4.237C9.26378 3.55404 10.2566 3.06754 11.0604 3.03012C11.1549 3.96568 10.7861 4.88254 10.2283 5.5655ZM11.0509 6.85657C9.73657 6.78173 8.61134 7.59567 7.98727 7.59567C7.35374 7.59567 6.39871 6.894 5.35859 6.91271C4.00643 6.93142 2.74883 7.68923 2.05856 8.8961C0.640213 11.3099 1.68979 14.8837 3.06086 16.8484C3.73222 17.8214 4.53595 18.8879 5.59498 18.8505C6.59728 18.8131 6.99442 18.205 8.20475 18.205C9.42453 18.205 9.77439 18.8505 10.8334 18.8318C11.9303 18.8131 12.6205 17.8588 13.2919 16.8858C14.0578 15.7818 14.3698 14.7059 14.3888 14.6498C14.3698 14.6311 12.2707 13.8359 12.2518 11.4408C12.2329 9.43873 13.9065 8.48445 13.9822 8.42832C13.0366 7.04369 11.5615 6.894 11.0509 6.85657ZM18.6438 4.14344V18.7289H20.9321V13.7423H24.0997C26.9932 13.7423 29.0261 11.7776 29.0261 8.93352C29.0261 6.08941 27.031 4.14344 24.1754 4.14344H18.6438ZM20.9321 6.05199H23.5702C25.5559 6.05199 26.6906 7.09982 26.6906 8.94288C26.6906 10.7859 25.5559 11.8431 23.5608 11.8431H20.9321V6.05199ZM33.2055 18.8411C34.6428 18.8411 35.976 18.1208 36.5812 16.9794H36.6285V18.7289H38.7466V11.4689C38.7466 9.36388 37.0445 8.00732 34.4253 8.00732C31.9952 8.00732 30.1986 9.38259 30.1324 11.2724H32.1938C32.364 10.3743 33.2055 9.78489 34.3591 9.78489C35.7586 9.78489 36.5434 10.4304 36.5434 11.6186V12.4232L33.6878 12.5916C31.0307 12.7506 29.5935 13.8265 29.5935 15.6976C29.5935 17.5875 31.078 18.8411 33.2055 18.8411ZM33.8202 17.1103C32.6004 17.1103 31.825 16.5303 31.825 15.6415C31.825 14.7247 32.572 14.1914 33.9998 14.1072L36.5434 13.9481V14.7714C36.5434 16.1374 35.3709 17.1103 33.8202 17.1103ZM41.5738 22.6957C43.8053 22.6957 44.8549 21.8536 45.7721 19.2996L49.7908 8.14765H47.4647L44.7698 16.7642H44.7225L42.0277 8.14765H39.6354L43.5122 18.7663L43.3042 19.4118C42.9543 20.5064 42.387 20.9274 41.3752 20.9274C41.1956 20.9274 40.8457 20.9087 40.7039 20.89V22.6395C40.8363 22.6769 41.4036 22.6957 41.5738 22.6957Z" fill="#868A99"/>
</svg>
