<svg width="35" height="35" viewBox="0 0 35 35" fill="none" xmlns="http://www.w3.org/2000/svg">
<path d="M22.9566 4H12.0434C7.60827 4 4 7.60827 4 12.0434V22.9566C4 27.3917 7.60827 31 12.0434 31H22.9566C27.3917 31 31 27.3917 31 22.9566V12.0434C31 7.60827 27.3917 4 22.9566 4ZM28.2838 22.9566C28.2838 25.8987 25.8987 28.2838 22.9566 28.2838H12.0434C9.10131 28.2838 6.7162 25.8987 6.7162 22.9566V12.0434C6.7162 9.10126 9.10131 6.7162 12.0434 6.7162H22.9566C25.8987 6.7162 28.2838 9.10126 28.2838 12.0434V22.9566Z" fill="white"/>
<path d="M17.5 10.5168C13.6495 10.5168 10.5168 13.6495 10.5168 17.5C10.5168 21.3504 13.6495 24.4831 17.5 24.4831C21.3505 24.4831 24.4832 21.3505 24.4832 17.5C24.4832 13.6494 21.3505 10.5168 17.5 10.5168ZM17.5 21.767C15.1434 21.767 13.233 19.8566 13.233 17.5C13.233 15.1434 15.1435 13.233 17.5 13.233C19.8566 13.233 21.767 15.1434 21.767 17.5C21.767 19.8566 19.8566 21.767 17.5 21.767Z" fill="white"/>
<path d="M24.4968 12.2426C25.4209 12.2426 26.1701 11.4934 26.1701 10.5693C26.1701 9.64516 25.4209 8.896 24.4968 8.896C23.5727 8.896 22.8235 9.64516 22.8235 10.5693C22.8235 11.4934 23.5727 12.2426 24.4968 12.2426Z" fill="white"/>
</svg>
