<svg width="91" height="92" viewBox="0 0 91 92" fill="none" xmlns="http://www.w3.org/2000/svg">
<path d="M63.7175 0H27.2825C12.2148 0 0 12.2407 0 27.3403V63.8525C0 78.9522 12.2148 91.1929 27.2825 91.1929H63.7175C78.7852 91.1929 91 78.9522 91 63.8525V27.3403C91 12.2407 78.7852 0 63.7175 0Z" fill="url(#paint0_linear_294_12792)"/>
<path opacity="0.8" d="M65.2701 41.5933C65.2701 41.2015 65.3294 40.812 65.4461 40.438L58.7159 34.1516C58.2691 34.3302 57.7924 34.4223 57.3112 34.423C57.0311 34.4213 56.7519 34.3894 56.4786 34.3277L48.9416 43.9443C49.207 44.4723 49.3451 45.0551 49.345 45.6461C49.345 46.6626 48.9412 47.6375 48.2225 48.3562C47.5037 49.075 46.5288 49.4788 45.5123 49.4788C44.4958 49.4788 43.5209 49.075 42.8022 48.3562C42.0834 47.6375 41.6796 46.6626 41.6796 45.6461C41.6807 45.2875 41.7313 44.9309 41.83 44.5861L35.3895 38.8866C34.9101 39.0906 34.3939 39.1942 33.8729 39.1911C33.3518 39.1879 32.837 39.0781 32.36 38.8682L25.9306 44.4468C26.055 44.8281 26.1181 45.2267 26.1177 45.6278C26.1177 46.6443 25.7139 47.6191 24.9951 48.3379C24.2763 49.0567 23.3014 49.4605 22.2849 49.4605C22.1969 49.4605 22.1126 49.4605 22.0282 49.4605V60.3938C22.0331 62.6603 22.9366 64.8324 24.5406 66.4337C26.1447 68.0351 28.3183 68.9349 30.5849 68.9358H60.4177C61.5422 68.9368 62.6558 68.7162 63.695 68.2867C64.7342 67.8571 65.6786 67.2271 66.4743 66.4324C67.2699 65.6378 67.9012 64.6943 68.332 63.6556C68.7629 62.617 68.9849 61.5036 68.9854 60.3791V45.4187C67.9904 45.3891 67.0459 44.9732 66.3523 44.2591C65.6588 43.545 65.2706 42.5888 65.2701 41.5933V41.5933Z" fill="white"/>
<path d="M68.9854 53.6708V60.3753C68.9854 62.6457 68.0835 64.823 66.4781 66.4284C64.8728 68.0338 62.6954 68.9357 60.4251 68.9357H30.5849C28.3168 68.9328 26.1426 68.0295 24.5402 66.4243C22.9378 64.8191 22.0382 62.6434 22.0392 60.3753V53.5278C22.0392 53.5278 29.5102 60.1296 45.5123 53.5278C59.7465 47.6595 68.9157 53.5278 68.9157 53.5278L68.9854 53.6708Z" fill="white"/>
<path opacity="0.8" d="M22.2849 41.7949C22.7537 41.7953 23.2185 41.881 23.6566 42.0479L30.1998 36.374C30.1086 36.0431 30.0617 35.7014 30.0604 35.3581C30.0594 34.8091 30.1764 34.2664 30.4034 33.7665C30.6304 33.2667 30.9621 32.8215 31.3761 32.461C31.7901 32.1005 32.2767 31.8331 32.803 31.6769C33.3293 31.5208 33.8829 31.4795 34.4266 31.556C34.9702 31.6324 35.491 31.8247 35.9539 32.1198C36.4168 32.415 36.8108 32.8061 37.1094 33.2668C37.4079 33.7275 37.6041 34.2469 37.6845 34.79C37.7649 35.333 37.7277 35.887 37.5754 36.4144L44.0049 42.114C44.4785 41.9146 44.9874 41.8123 45.5013 41.8132C45.7813 41.8137 46.0604 41.8444 46.3338 41.9049L53.8709 32.2919C53.5935 31.7307 53.4579 31.1099 53.4761 30.4841C53.4942 29.8583 53.6656 29.2464 53.9751 28.7022C54.2846 28.158 54.7229 27.6979 55.2515 27.3624C55.7801 27.0269 56.3829 26.8261 57.0071 26.7776C57.6313 26.7292 58.2579 26.8345 58.832 27.0844C59.406 27.3343 59.91 27.7212 60.2998 28.2111C60.6897 28.7011 60.9534 29.2791 61.0679 29.8947C61.1825 30.5102 61.1443 31.1444 60.9569 31.7418L67.7017 38.0282C68.1075 37.8671 68.5381 37.7778 68.9744 37.7641V30.9129C68.9734 28.6438 68.0716 26.4679 66.4671 24.8635C64.8627 23.259 62.6868 22.3572 60.4177 22.3562H30.5849C28.3177 22.3601 26.1447 23.2632 24.5426 24.8674C22.9405 26.4715 22.0402 28.6457 22.0392 30.9129V41.8059C22.1125 41.7985 22.1969 41.7949 22.2849 41.7949Z" fill="white"/>
<path d="M57.2965 32.9669C58.6131 32.9669 59.6805 31.8996 59.6805 30.583C59.6805 29.2663 58.6131 28.199 57.2965 28.199C55.9798 28.199 54.9125 29.2663 54.9125 30.583C54.9125 31.8996 55.9798 32.9669 57.2965 32.9669Z" fill="white"/>
<path d="M68.9744 44.0504C70.2911 44.0504 71.3584 42.9831 71.3584 41.6665C71.3584 40.3498 70.2911 39.2825 68.9744 39.2825C67.6578 39.2825 66.5905 40.3498 66.5905 41.6665C66.5905 42.9831 67.6578 44.0504 68.9744 44.0504Z" fill="white"/>
<path d="M22.0282 48.0299C23.3448 48.0299 24.4121 46.9626 24.4121 45.646C24.4121 44.3293 23.3448 43.262 22.0282 43.262C20.7115 43.262 19.6442 44.3293 19.6442 45.646C19.6442 46.9626 20.7115 48.0299 22.0282 48.0299Z" fill="white"/>
<path d="M45.5012 48.0299C46.8178 48.0299 47.8852 46.9626 47.8852 45.646C47.8852 44.3293 46.8178 43.262 45.5012 43.262C44.1845 43.262 43.1172 44.3293 43.1172 45.646C43.1172 46.9626 44.1845 48.0299 45.5012 48.0299Z" fill="white"/>
<path d="M33.9262 37.6869C35.2429 37.6869 36.3102 36.6196 36.3102 35.3029C36.3102 33.9863 35.2429 32.9189 33.9262 32.9189C32.6096 32.9189 31.5422 33.9863 31.5422 35.3029C31.5422 36.6196 32.6096 37.6869 33.9262 37.6869Z" fill="white"/>
<defs>
<linearGradient id="paint0_linear_294_12792" x1="80.9843" y1="9.46341" x2="7.8587" y2="82.1482" gradientUnits="userSpaceOnUse">
<stop stop-color="#00FFF4"/>
<stop offset="1" stop-color="#0062EE"/>
</linearGradient>
</defs>
</svg>
