<svg width="32" height="24" viewBox="0 0 32 24" fill="none" xmlns="http://www.w3.org/2000/svg">
    <path d="M30.4901 23.2689V23.3253H30.5467C30.5656 23.3253 30.5656 23.3253 30.5844 23.3253L30.6033 23.3065C30.6033 23.2877 30.6033 23.2877 30.5844 23.2877C30.5844 23.2877 30.5656 23.2877 30.5467 23.2877H30.4901V23.2689ZM30.5467 23.2312C30.5844 23.2312 30.6033 23.2312 30.6222 23.2501C30.641 23.2689 30.641 23.2877 30.641 23.3065C30.641 23.3253 30.641 23.3442 30.6222 23.3442C30.6033 23.363 30.5844 23.363 30.5656 23.363L30.641 23.4571H30.5844L30.509 23.363H30.4901V23.4571H30.4335V23.2312H30.5467ZM30.5279 23.5324C30.5467 23.5324 30.5844 23.5323 30.6033 23.5135C30.6221 23.4947 30.641 23.4947 30.6599 23.4759C30.6787 23.4571 30.6976 23.4383 30.6976 23.4194C30.7165 23.4006 30.7165 23.363 30.7165 23.3442C30.7165 23.3253 30.7165 23.2877 30.6976 23.2689C30.6787 23.2501 30.6787 23.2312 30.6599 23.2124C30.641 23.1936 30.6221 23.1748 30.6033 23.1748C30.5844 23.156 30.5467 23.156 30.5279 23.156C30.509 23.156 30.4713 23.156 30.4524 23.1748C30.4336 23.1936 30.4147 23.1936 30.3958 23.2124C30.377 23.2312 30.3581 23.2501 30.3581 23.2689C30.3393 23.2877 30.3393 23.3253 30.3393 23.3442C30.3393 23.363 30.3393 23.4006 30.3581 23.4194C30.377 23.4383 30.377 23.4571 30.3958 23.4759C30.4147 23.4947 30.4336 23.5135 30.4524 23.5135C30.4901 23.5323 30.509 23.5324 30.5279 23.5324ZM30.5279 23.0995C30.5656 23.0995 30.6033 23.0995 30.6222 23.1183C30.6599 23.1371 30.6787 23.156 30.6976 23.1748C30.7165 23.1936 30.7353 23.2312 30.7542 23.2501C30.773 23.2877 30.773 23.3065 30.773 23.3442C30.773 23.3818 30.773 23.4006 30.7542 23.4383C30.7353 23.4759 30.7165 23.4947 30.6976 23.5135C30.6787 23.5323 30.641 23.5512 30.6222 23.57C30.5844 23.5888 30.5656 23.5888 30.5279 23.5888C30.4901 23.5888 30.4524 23.5888 30.4335 23.57C30.4147 23.5512 30.377 23.5323 30.3581 23.5135C30.3393 23.4947 30.3204 23.4571 30.3015 23.4383C30.2827 23.4006 30.2827 23.3818 30.2827 23.3442C30.2827 23.3065 30.2827 23.2877 30.3015 23.2501C30.3204 23.2124 30.3393 23.1936 30.3581 23.1748C30.377 23.156 30.4147 23.1371 30.4335 23.1183C30.4713 23.0995 30.4901 23.0995 30.5279 23.0995ZM7.44311 22.215C7.44311 21.7822 7.72601 21.4246 8.19751 21.4246C8.65015 21.4246 8.95191 21.7633 8.95191 22.215C8.95191 22.6667 8.65015 23.0054 8.19751 23.0054C7.72601 23.0054 7.44311 22.6478 7.44311 22.215ZM9.44228 22.215V20.9729H8.89534V21.274C8.7256 21.0482 8.46156 20.9165 8.12208 20.9165C7.42426 20.9165 6.87731 21.4622 6.87731 22.215C6.87731 22.9678 7.42426 23.5135 8.12208 23.5135C8.48042 23.5135 8.7256 23.3818 8.89534 23.156V23.4571H9.44228V22.215ZM27.6234 22.215C27.6234 21.7822 27.9063 21.4246 28.3778 21.4246C28.8304 21.4246 29.1322 21.7633 29.1322 22.215C29.1322 22.6667 28.8304 23.0054 28.3778 23.0054C27.9252 23.0054 27.6234 22.6478 27.6234 22.215ZM29.6414 22.215V19.9943H29.0945V21.274C28.9247 21.0482 28.6607 20.9165 28.3212 20.9165C27.6234 20.9165 27.0765 21.4622 27.0765 22.215C27.0765 22.9678 27.6234 23.5135 28.3212 23.5135C28.6796 23.5135 28.9247 23.3818 29.0945 23.156V23.4571H29.6414V22.215ZM16.1187 21.4058C16.4582 21.4058 16.6846 21.6316 16.7411 22.008H15.4586C15.5152 21.6504 15.7415 21.4058 16.1187 21.4058ZM16.1376 20.9165C15.4209 20.9165 14.9117 21.4434 14.9117 22.215C14.9117 23.0054 15.4398 23.5135 16.1753 23.5135C16.5525 23.5135 16.892 23.4194 17.1938 23.1748L16.9297 22.7796C16.7223 22.949 16.4582 23.043 16.213 23.043C15.8736 23.043 15.5529 22.8737 15.4775 22.4408H17.3069C17.3069 22.3656 17.3258 22.3091 17.3258 22.2338C17.3069 21.4434 16.8354 20.9165 16.1376 20.9165ZM22.6255 22.215C22.6255 21.7822 22.9084 21.4246 23.3799 21.4246C23.8325 21.4246 24.1343 21.7633 24.1343 22.215C24.1343 22.6667 23.8325 23.0054 23.3799 23.0054C22.9272 23.0054 22.6255 22.6478 22.6255 22.215ZM24.6435 22.215V20.9729H24.0966V21.274C23.9268 21.0482 23.6628 20.9165 23.3233 20.9165C22.6255 20.9165 22.0785 21.4622 22.0785 22.215C22.0785 22.9678 22.6255 23.5135 23.3233 23.5135C23.6816 23.5135 23.9268 23.3818 24.0966 23.156V23.4571H24.6435V22.215ZM19.589 22.215C19.589 22.9678 20.1171 23.5135 20.9092 23.5135C21.2864 23.5135 21.5316 23.4383 21.7956 23.2124L21.5316 22.7796C21.3241 22.9301 21.1167 23.0054 20.8903 23.0054C20.4566 23.0054 20.1359 22.6855 20.1359 22.215C20.1359 21.7445 20.4566 21.4246 20.8903 21.4246C21.1167 21.4246 21.343 21.4999 21.5316 21.6504L21.7956 21.2176C21.5316 21.0106 21.2864 20.9165 20.9092 20.9165C20.1171 20.9165 19.589 21.4622 19.589 22.215ZM26.5295 20.9165C26.2278 20.9165 26.0203 21.067 25.8694 21.274V20.9729H25.3413V23.4383H25.8883V22.0456C25.8883 21.6316 26.058 21.4058 26.4164 21.4058C26.5295 21.4058 26.6427 21.4246 26.7558 21.4622L26.9256 20.9541C26.7936 20.9353 26.6427 20.9165 26.5295 20.9165ZM12.1016 21.1799C11.8375 21.0106 11.4792 20.9165 11.0831 20.9165C10.4607 20.9165 10.0458 21.2176 10.0458 21.7069C10.0458 22.1021 10.3476 22.3656 10.8945 22.4408L11.1397 22.4785C11.4415 22.5161 11.5735 22.5914 11.5735 22.7419C11.5735 22.9301 11.3849 23.043 11.0077 23.043C10.6305 23.043 10.3664 22.9301 10.1778 22.7796L9.93264 23.1936C10.2344 23.4194 10.5927 23.5135 11.0077 23.5135C11.7244 23.5135 12.1393 23.1748 12.1393 22.7043C12.1393 22.2715 11.8187 22.0456 11.2717 21.9704L11.0265 21.9327C10.8002 21.8951 10.6116 21.8574 10.6116 21.6881C10.6116 21.4999 10.7814 21.4058 11.0831 21.4058C11.4037 21.4058 11.7055 21.5187 11.8564 21.6128L12.1016 21.1799ZM19.0421 20.9165C18.7403 20.9165 18.5328 21.067 18.382 21.274V20.9729H17.8539V23.4383H18.4008V22.0456C18.4008 21.6316 18.5706 21.4058 18.9289 21.4058C19.0421 21.4058 19.1552 21.4246 19.2684 21.4622L19.4381 20.9541C19.3061 20.9353 19.1552 20.9165 19.0421 20.9165ZM14.4591 20.9729H13.5726V20.2202H13.0257V20.9729H12.5165V21.4622H13.0257V22.5914C13.0257 23.156 13.252 23.5135 13.8933 23.5135C14.1196 23.5135 14.4025 23.4383 14.5722 23.3253L14.4213 22.8737C14.2516 22.9678 14.0819 23.0054 13.9498 23.0054C13.6858 23.0054 13.5915 22.836 13.5915 22.5914V21.4811H14.4779V20.9729H14.4591ZM6.4058 23.4571V21.9139C6.4058 21.3305 6.02861 20.9353 5.42509 20.9353C5.10447 20.9353 4.78384 21.0294 4.55752 21.3681C4.38778 21.0859 4.12374 20.9353 3.74654 20.9353C3.4825 20.9353 3.21846 21.0106 3.02986 21.2929V20.9918H2.48291V23.4571H3.02986V22.0833C3.02986 21.6504 3.27504 21.4246 3.63338 21.4246C3.99172 21.4246 4.18032 21.6504 4.18032 22.0833V23.4571H4.72726V22.0833C4.72726 21.6504 4.97245 21.4246 5.33079 21.4246C5.68913 21.4246 5.87772 21.6504 5.87772 22.0833V23.4571H6.4058Z" fill="#868A99"/>
    <path d="M20.105 16.7817H11.9424V2.14783H20.105V16.7817Z" fill="#797D8A"/>
    <path d="M12.46 9.47078C12.46 6.49734 13.8557 3.86265 16.0246 2.1501C14.4403 0.908027 12.4412 0.155252 10.2534 0.155252C5.10461 0.155252 0.936523 4.31431 0.936523 9.45196C0.936523 14.5896 5.10461 18.7487 10.2534 18.7487C12.4223 18.7487 14.4215 17.9959 16.0246 16.7538C13.8557 15.0789 12.46 12.4442 12.46 9.47078Z" fill="#44454D"/>
    <path d="M31.0969 9.47091C31.0969 14.6086 26.9288 18.7676 21.78 18.7676C19.6111 18.7676 17.6119 18.0148 16.0088 16.7728C18.1777 15.0602 19.5734 12.4255 19.5734 9.45209C19.5734 6.47866 18.1777 3.84396 16.0088 2.13141C17.593 0.889341 19.5922 0.136577 21.78 0.136577C26.9288 0.155396 31.0969 4.33327 31.0969 9.47091Z" fill="#656773"/>
</svg>
