<svg width="35" height="35" viewBox="0 0 35 35" fill="none" xmlns="http://www.w3.org/2000/svg">
<path d="M10.7431 8C15.5718 8 19.4859 11.7899 19.4859 16.4647C19.4859 21.1394 15.5715 24.929 10.7431 24.929C5.91469 24.929 2 21.1394 2 16.4647C2 11.7899 5.91439 8 10.7431 8ZM24.7052 8.49584C27.1195 8.49584 29.0767 12.0632 29.0767 16.4647H29.077C29.077 20.8649 27.1198 24.4335 24.7055 24.4335C22.2911 24.4335 20.3339 20.8649 20.3339 16.4647C20.3339 12.0644 22.2908 8.49584 24.7052 8.49584ZM31.4625 9.32585C32.3115 9.32585 33 12.5219 33 16.4647C33 20.4062 32.3118 23.6035 31.4625 23.6035C30.6133 23.6035 29.9253 20.4071 29.9253 16.4647C29.9253 12.5222 30.6136 9.32585 31.4625 9.32585Z" fill="white"/>
</svg>
