<svg width="51" height="14" viewBox="0 0 51 14" fill="none" xmlns="http://www.w3.org/2000/svg">
    <g opacity="0.7">
        <path d="M10.7959 4.47218H7.50094C7.50094 3.93729 7.43734 3.57841 7.31077 3.39557C7.11464 3.12533 6.57357 2.9899 5.68786 2.9899C4.82754 2.9899 4.25733 3.06769 3.97912 3.22357C3.7009 3.38007 3.56148 3.72004 3.56148 4.24347C3.56148 4.71732 3.68493 5.02971 3.93212 5.17908C4.10914 5.28538 4.34317 5.34767 4.63454 5.36626L5.29906 5.41275C6.72333 5.50603 7.61279 5.57204 7.96745 5.60954C9.09377 5.72173 9.91023 6.018 10.4168 6.49804C10.8154 6.87272 11.0532 7.36237 11.129 7.96669C11.1735 8.32835 11.1954 8.73773 11.1954 9.19237C11.1954 10.2405 11.0942 11.0078 10.8921 11.494C10.5252 12.3866 9.70095 12.9503 8.4186 13.1871C7.88129 13.2872 7.0595 13.3371 5.95386 13.3371C4.10851 13.3371 2.82272 13.2286 2.09649 13.0101C1.20545 12.7427 0.617701 12.2006 0.333536 11.3846C0.175005 10.9303 0.0966797 10.1735 0.0966797 9.11427H3.39167C3.39167 9.23234 3.39199 9.32284 3.39199 9.38513C3.39199 9.9504 3.55616 10.3136 3.88419 10.4757C4.11133 10.5873 4.38547 10.6458 4.70786 10.653H5.91939C6.53754 10.653 6.93199 10.6217 7.10211 10.5587C7.40507 10.441 7.60402 10.2513 7.69895 9.98882C7.74939 9.82705 7.77445 9.61818 7.77445 9.3622C7.77445 8.78918 7.56297 8.44053 7.14064 8.31533C6.98243 8.26606 6.24805 8.19695 4.93657 8.10986C3.88325 8.03549 3.15169 7.9639 2.7422 7.89448C1.6635 7.6949 0.944474 7.28427 0.585744 6.66105C0.270249 6.13173 0.112658 5.33062 0.112658 4.25866C0.112658 3.44268 0.197876 2.78815 0.368312 2.29602C0.538749 1.80358 0.813514 1.42983 1.19261 1.17416C1.74809 0.781511 2.45898 0.551251 3.324 0.482451C4.04397 0.42016 4.84258 0.38855 5.72107 0.38855C7.10399 0.38855 8.08964 0.467266 8.67708 0.623149C10.1111 1.00433 10.8279 2.07165 10.8279 3.82572C10.8279 3.96952 10.8172 4.18459 10.7959 4.47218Z" fill="#868A99"/>
        <path d="M25.9937 13.3371V0.38855H32.5654C33.4668 0.38855 34.1545 0.460993 34.6272 0.606496C35.708 0.940967 36.4331 1.62625 36.8047 2.66141C36.9963 3.20489 37.0924 4.02303 37.0924 5.11554C37.0924 6.42907 36.986 7.37268 36.7754 7.9476C36.3539 9.08387 35.4865 9.73864 34.1763 9.90818C34.0222 9.93377 33.3666 9.95627 32.2094 9.97477L31.624 9.99388H29.521V13.3371H25.9937ZM29.521 6.99012H31.7198C32.4172 6.96545 32.8412 6.91243 32.9938 6.82951C33.2022 6.71637 33.3423 6.48949 33.4119 6.14947C33.4565 5.9232 33.4786 5.58657 33.4786 5.13958C33.4786 4.59179 33.4343 4.1858 33.3454 3.92069C33.2187 3.54922 32.9148 3.32326 32.4337 3.24096C32.3382 3.22863 32.1104 3.22184 31.7494 3.22184H29.521V6.99012Z" fill="#868A99"/>
        <path d="M45.8903 11.0993H41.2796L40.6601 13.3371H37.0924L40.9423 0.38855H46.1441L50.0409 13.3371H46.5482L45.8903 11.0993ZM45.2055 8.57677L43.5897 2.96382L42.0218 8.57677H45.2055Z" fill="#868A99"/>
    </g>
    <path d="M20.4064 2.12029C21.846 2.12029 23.1312 2.79225 23.9757 3.84459L24.7283 2.21008C23.5515 1.08328 21.9497 0.388489 20.1831 0.388489C17.4323 0.388489 15.0793 2.07149 14.1137 4.45398H12.6463L11.7798 6.33563H13.6675C13.6533 6.51018 13.644 6.68474 13.644 6.86305C13.644 7.07859 13.6551 7.29194 13.6761 7.50247H12.7275L11.8613 9.38474H14.1588C15.1519 11.7069 17.4756 13.337 20.1831 13.337C21.5477 13.337 22.8137 12.9228 23.8621 12.2152V9.90841C23.0179 10.8822 21.783 11.4976 20.4064 11.4976C18.7972 11.4976 17.3817 10.657 16.5575 9.38474H21.368L22.2344 7.50247H15.8497C15.8167 7.27598 15.7991 7.04449 15.7991 6.80862C15.7991 6.64908 15.8071 6.49142 15.8226 6.33563H22.7714L23.6376 4.45398H16.4232C17.2211 3.05909 18.7058 2.12029 20.4064 2.12029Z" fill="#868A99"/>
</svg>
