<svg width="35" height="35" viewBox="0 0 35 35" fill="none" xmlns="http://www.w3.org/2000/svg">
<path d="M31 9.60215C29.9875 10.0415 28.9412 10.3456 27.8275 10.4808C28.975 9.80492 29.8525 8.7235 30.2575 7.40553C29.1775 8.04762 27.9963 8.48694 26.7475 8.7573C25.735 7.67588 24.2838 7 22.6975 7C19.6263 7 17.1625 9.50077 17.1625 12.5422C17.1625 12.9816 17.1963 13.3871 17.2975 13.7926C12.7075 13.5899 8.6575 11.3594 5.92375 8.01382C3.96625 11.5284 6.16 14.4347 7.61125 15.4147C6.73375 15.4147 5.85625 15.1444 5.11375 14.7389C5.11375 17.4762 7.0375 19.7404 9.535 20.2473C8.995 20.4163 7.78 20.5177 7.0375 20.3487C7.74625 22.5453 9.805 24.1674 12.2013 24.2012C10.3113 25.6882 7.54375 26.871 4 26.4992C6.46375 28.0876 9.36625 29 12.505 29C22.6975 29 28.2325 20.5515 28.2325 13.2519C28.2325 13.0154 28.2325 12.7788 28.1987 12.5422C29.3462 11.6974 30.2913 10.7174 31 9.60215V9.60215Z" fill="white"/>
</svg>
