<svg width="44" height="14" viewBox="0 0 44 14" fill="none" xmlns="http://www.w3.org/2000/svg">
    <path d="M32.1896 0.820083C31.4938 0.555565 30.4168 0.291046 29.0748 0.291046C25.6452 0.291046 23.2096 2.01042 23.193 4.49028C23.1765 6.32538 24.9161 7.33386 26.2416 7.94556C27.6002 8.57379 28.0476 8.97057 28.0476 9.53267C28.031 10.3924 26.9706 10.7726 25.9599 10.7726C24.5682 10.7726 23.8226 10.5742 22.6794 10.1113L22.2321 9.91292L21.7516 12.7565C22.5634 13.1202 24.0712 13.4178 25.6286 13.4343C29.2902 13.4343 31.6595 11.7315 31.6926 9.0863C31.7092 7.63144 30.7813 6.5403 28.7766 5.63102C27.5671 5.03585 26.8215 4.65561 26.8215 4.04391C26.8215 3.51487 27.4511 2.95277 28.8097 2.95277C29.9529 2.93623 30.7648 3.18422 31.4109 3.44874L31.7257 3.59753L32.1896 0.820083Z" fill="#868A99"/>
    <path d="M16.0857 13.2525L18.2727 0.505959H21.7521L19.565 13.2525H16.0857Z" fill="#868A99"/>
    <path fill-rule="evenodd" clip-rule="evenodd" d="M38.4192 0.5225H41.1032L43.9364 13.2359H40.7056C40.7056 13.2359 40.3742 11.7811 40.2748 11.3347H35.8179C35.6854 11.6819 35.0889 13.2525 35.0889 13.2525H31.4273L36.5967 1.58058C36.9612 0.753954 37.5908 0.5225 38.4192 0.5225ZM36.8184 8.72259H39.7115C39.5624 8.09436 38.8997 5.05239 38.8997 5.05239L38.6677 3.96125L38.4843 4.44239C38.3351 4.83322 38.1922 5.20779 38.2038 5.18465C38.2038 5.18465 37.1101 7.96991 36.8184 8.72259Z" fill="#868A99"/>
    <path d="M13.1694 0.5225L9.77291 9.20203L9.40841 7.43306C9.39103 7.3774 9.37262 7.32158 9.3532 7.26565L8.16568 1.59711C7.96686 0.787019 7.3704 0.539033 6.60826 0.5225H0.9916L0.941895 0.78702C2.3139 1.12017 3.54135 1.60083 4.61651 2.19854L7.70187 13.2359H11.38L16.8641 0.5225H13.1694Z" fill="#868A99"/>
</svg>
