<svg width="35" height="35" viewBox="0 0 35 35" fill="none" xmlns="http://www.w3.org/2000/svg">
<path d="M31.4025 10.973C31.0683 9.81049 30.0888 8.89407 28.8466 8.58103C26.5772 8 17.4997 8 17.4997 8C17.4997 8 8.42247 8 6.15312 8.559C4.93481 8.87171 3.93139 9.81066 3.59721 10.973C3 13.0964 3 17.5 3 17.5C3 17.5 3 21.9258 3.59721 24.027C3.93174 25.1893 4.91092 26.1058 6.1533 26.4188C8.44636 27 17.5 27 17.5 27C17.5 27 26.5772 27 28.8466 26.441C30.089 26.1281 31.0683 25.2117 31.4029 24.0493C31.9999 21.9258 31.9999 17.5224 31.9999 17.5224C31.9999 17.5224 32.0238 13.0964 31.4025 10.973V10.973ZM14.6096 21.5682V13.4318L22.158 17.5L14.6096 21.5682Z" fill="white"/>
</svg>
